<?xml version="1.0" encoding="UTF-8"?>
<svg width="64px" height="64px" viewBox="0 0 64 64" version="1.1" xmlns="http://www.w3.org/2000/svg" xmlns:xlink="http://www.w3.org/1999/xlink">
    <!-- Generator: Sketch 48.2 (47327) - http://www.bohemiancoding.com/sketch -->
    <title>Contract management</title>
    <desc>Created with Sketch.</desc>
    <defs></defs>
    <g id="Page-1" stroke="none" stroke-width="1" fill="none" fill-rule="evenodd">
        <g id="Contract-management">
            <g id="Group-3" transform="translate(4.000000, 4.000000)">
                <g id="Group-2">
                    <path d="M1.31334473,1.31321267 L1.31334473,54.6867873 L42.6548773,54.6867873 L42.6548773,13.3583748 L31.4292692,13.3583748 C30.4240099,13.3583748 29.6090862,12.543533 29.6090862,11.5383748 L29.6090862,1.31321267 L1.31334473,1.31321267 Z M0.506838294,0 L30.9224309,0 L30.9224309,11.5383748 C30.9224309,11.8182657 31.1493502,12.0451621 31.4292692,12.0451621 L43.968222,12.0451621 L43.968222,55.4932127 C43.968222,55.7731036 43.7413028,56 43.4613837,56 L0.506838294,56 C0.226919234,56 3.60130268e-15,55.7731036 0,55.4932127 L0,0.50678733 C0,0.226896416 0.226919234,0 0.506838294,0 Z" id="Rectangle-54" fill="#17A086" fill-rule="nonzero"></path>
                    <path d="M1.31334473,1.31321267 L1.31334473,54.6867873 L42.6548773,54.6867873 L42.6548773,12.6199947 L30.4088058,1.31321267 L1.31334473,1.31321267 Z M0.506838294,0 L30.9224309,0 L43.968222,12.0451621 L43.968222,55.4932127 C43.968222,55.7731036 43.7413028,56 43.4613837,56 L0.506838294,56 C0.226919234,56 3.60130268e-15,55.7731036 0,55.4932127 L0,0.50678733 C0,0.226896416 0.226919234,0 0.506838294,0 Z" id="Rectangle-54-Copy" fill="#17A086" fill-rule="nonzero"></path>
                    <path d="M7.60090717,28.4066256 L33.3406769,28.4066256" id="Path-18-Copy" stroke="#17A086" stroke-width="1.30599" stroke-linecap="round"></path>
                    <path d="M7.56637168,35.9741932 L26.7124165,35.9741932" id="Path-18-Copy-2" stroke="#17A086" stroke-width="1.30599" stroke-linecap="round"></path>
                    <g id="Group" transform="translate(41.060693, 30.427469) rotate(35.000000) translate(-41.060693, -30.427469) translate(38.034145, 7.472514)" stroke="#17A086" stroke-linecap="round" stroke-width="1.30599">
                        <path d="M3.22782306,0.400296326 L3.22782306,0.400296326 C4.73238801,0.400296326 5.95207889,1.61998721 5.95207889,3.12455216 L5.95207889,39.1516825 L3.22782306,45.5043687 L0.50356723,39.1516825 L0.50356723,3.12455216 C0.50356723,1.61998721 1.72325811,0.400296326 3.22782306,0.400296326 Z" id="Rectangle-55" fill="#FFFFFF"></path>
                        <path d="M0.88369595,8.0654547 L5.95207889,8.0654547" id="Path-19"></path>
                    </g>
                </g>
                <path d="M11.9123064,21.207911 L11.9817977,21.1324876 C14.5818913,20.9196349 16.0866185,19.5402889 16.0866185,17.3699324 C16.0866185,15.5335551 15.0381608,14.4169247 12.7653751,13.8113609 L11.9698224,13.6147815 L11.9123064,13.5413148 L11.9123064,8.87838609 L11.9971052,8.88870108 C13.382366,9.05720538 14.3345582,9.93725854 14.4092976,11.1066864 L15.8493825,11.1066864 C15.7483298,9.15835775 14.2457772,7.77850803 11.9816367,7.58829016 L11.9123064,7.51288007 L11.9123064,6.28738739 L10.8094683,6.28738739 L10.8094683,7.52224099 L10.7411872,7.59755558 C8.38330348,7.82875719 6.93465846,9.19924532 6.93465846,11.2010839 C6.93465846,12.8948445 8.02032685,14.1002703 10.0051118,14.6197414 L10.7538673,14.8256818 L10.8094683,14.8986486 L10.8094683,19.8517312 L10.7246999,19.8414546 C9.17484829,19.6535641 8.19822714,18.8211983 8.06306101,17.5673001 L6.60817317,17.5673001 C6.65686047,19.561915 8.2686553,20.9587564 10.739394,21.141803 L10.8094683,21.217272 L10.8094683,22.39596 L11.9123064,22.39596 L11.9123064,21.207911 Z M14.6187621,17.5009854 C14.6187621,18.9147386 13.6536227,19.7840204 11.9918785,19.8699862 L11.9123064,19.7944116 L11.9123064,15.0580256 L12.0036366,15.0773578 C13.7952152,15.4565878 14.6187621,16.21797 14.6187621,17.5009854 Z M8.39315542,11.1074747 C8.39315542,9.89082096 9.37526206,8.96566734 10.729488,8.88827077 L10.8094683,8.9638232 L10.8094683,13.3629623 L10.7183352,13.3439252 C9.20213637,13.0272007 8.39315542,12.2578027 8.39315542,11.1074747 Z" id="$" fill="#17A086" fill-rule="nonzero"></path>
                <path d="M7.56637168,44.041036 L20.0911992,44.041036" id="Path-18-Copy-3" stroke="#17A086" stroke-width="1.295625" stroke-linecap="round"></path>
            </g>
        </g>
    </g>
</svg>